Coordinates
version=1
nRows=6
nColumns=46
inDegrees=yes

Units are S.I. units (second, meters, Newtons, ...)
Angles are in degrees.

endheader
time	pelvis_tilt	pelvis_list	pelvis_rotation	pelvis_tx	pelvis_ty	pelvis_tz	bb_angle	bb_tx	bb_ty	bb_tz	hip_flexion_r	hip_adduction_r	hip_rotation_r	knee_angle_r	knee_angle_r_beta	ankle_angle_r	subtalar_angle_r	mtp_angle_r	crank_angle_r	hip_flexion_l	hip_adduction_l	hip_rotation_l	knee_angle_l	knee_angle_l_beta	ankle_angle_l	subtalar_angle_l	mtp_angle_l	crank_angle_l	lumbar_extension	lumbar_bending	lumbar_rotation	arm_flex_r	arm_add_r	arm_rot_r	elbow_flex_r	pro_sup_r	wrist_flex_r	wrist_dev_r	arm_flex_l	arm_add_l	arm_rot_l	elbow_flex_l	pro_sup_l	wrist_flex_l	wrist_dev_l
      2.50000000	    -18.00550620	      0.60866418	      5.40133619	      0.33087205	      1.11336825	     -0.25756986	      0.00000000	      0.50000000	      0.00000000	      0.25000000	     44.66125896	     -5.86954579	     -2.29534850	     48.74757453	      0.85080568	     -1.52304379	    -15.80888992	      0.00000000	      0.00000000	     61.47790865	     -2.68262481	      5.28266220	    103.86837895	      1.81284520	     -7.99086582	     -7.83506961	      0.00000000	      0.00000000	    -59.55263268	      8.79461427	     -2.51369601	     51.33891209	     -9.92343131	     22.47922502	     76.29253667	     48.17445636	      0.00000000	      0.00000000	     50.99380196	    -22.69551189	     20.27095044	     69.94187030	     47.48598149	      0.00000000	      0.00000000
      2.50500000	    -17.72668458	      0.82447535	      5.52576109	      0.33157893	      1.11211666	     -0.25782437	      0.00000000	      0.50000000	      0.00000000	      0.25000000	     43.78599612	     -6.13559153	     -2.40093087	     48.17871055	      0.84087713	     -1.95779885	    -15.65094377	      0.00000000	      0.00000000	     62.01027299	     -2.48932577	      5.22284523	    105.03454453	      1.83319863	     -7.71871090	     -7.78282494	      0.00000000	      0.00000000	    -59.41113978	      8.48083228	     -2.82094447	     51.04888053	    -10.01989393	     22.38878244	     76.10447072	     48.14675029	      0.00000000	      0.00000000	     50.96485574	    -22.58344861	     20.41055336	     69.83327830	     47.48843253	      0.00000000	      0.00000000
      2.51000000	    -17.24808643	      0.84967948	      5.76855266	      0.33242523	      1.11153627	     -0.25828698	      0.00000000	      0.50000000	      0.00000000	      0.25000000	     42.55620303	     -6.34568104	     -2.89084242	     47.38242135	      0.82697926	     -2.89289102	    -15.74944707	      0.00000000	      0.00000000	     62.30177075	     -2.29689863	      5.46730409	    106.12119091	      1.85216419	     -6.84589127	     -7.10777869	      0.00000000	      0.00000000	    -59.44252255	      8.43888748	     -2.75719482	     50.74428136	     -9.96120888	     21.78365913	     75.26024207	     48.00730019	      0.00000000	      0.00000000	     51.33365953	    -22.24343091	     21.12043105	     68.97245331	     47.45569347	      0.00000000	      0.00000000
      2.51500000	    -17.09607914	      1.08572915	      5.84038825	      0.33312531	      1.11060228	     -0.25855041	      0.00000000	      0.50000000	      0.00000000	      0.25000000	     41.77924200	     -6.59356016	     -2.94051438	     46.73491613	      0.81567816	     -3.47705351	    -15.47300610	      0.00000000	      0.00000000	     62.89310415	     -2.09126511	      5.34026096	    107.12577385	      1.86969747	     -6.47357042	     -7.21182847	      0.00000000	      0.00000000	    -59.22950637	      8.00689401	     -3.06444316	     50.34948682	    -10.08077152	     21.70139908	     75.04762669	     47.98169674	      0.00000000	      0.00000000	     51.29254070	    -22.18203803	     21.29329294	     68.81592330	     47.45687104	      0.00000000	      0.00000000
      2.52000000	    -16.92549240	      1.26952154	      5.95830586	      0.33380503	      1.10991436	     -0.25895230	      0.00000000	      0.50000000	      0.00000000	      0.25000000	     40.95626133	     -6.84358003	     -3.11388135	     46.05305565	      0.80377745	     -4.18497418	    -15.20623911	      0.00000000	      0.00000000	     63.45924341	     -1.87582929	      5.25316717	    108.09244431	      1.88656905	     -6.02916343	     -7.25266622	      0.00000000	      0.00000000	    -59.05001785	      7.69126943	     -3.34251047	     50.00356660	    -10.20126884	     21.57093131	     74.75292423	     47.93820860	      0.00000000	      0.00000000	     51.26738467	    -22.07503655	     21.52127242	     68.64893579	     47.46182170	      0.00000000	      0.00000000
      2.52500000	    -16.74532481	      1.41718890	      6.11198615	      0.33446205	      1.10944859	     -0.25940505	      0.00000000	      0.50000000	      0.00000000	      0.25000000	     40.08305409	     -7.08640962	     -3.34369694	     45.31298959	      0.79086086	     -4.98599695	    -15.06390244	      0.00000000	      0.00000000	     64.01278303	     -1.65147126	      5.21780835	    109.00783572	      1.90254564	     -5.45407915	     -7.20088790	      0.00000000	      0.00000000	    -58.89145300	      7.43289982	     -3.57628540	     49.69312698	    -10.30973014	     21.38531958	     74.35433130	     47.87551315	      0.00000000	      0.00000000	     51.28251747	    -21.95332040	     21.82175923	     68.42881444	     47.46706088	      0.00000000	      0.00000000
